<svg width="33" height="22" viewBox="0 0 33 22" fill="none" xmlns="http://www.w3.org/2000/svg">
<g clip-path="url(#clip0_92_443)">
<path d="M16.5249 0C21.1024 0 25.67 0 30.2475 0C31.6138 0 32.6111 0.737946 32.9102 1.97123C32.9801 2.25427 32.99 2.54743 33 2.83048C33 8.1073 33.01 13.3942 33 18.671C33 20.43 31.9429 21.5015 30.2076 21.5015C21.0725 21.5015 11.9374 21.5015 2.80236 21.5015C1.06709 21.5015 0.0199456 20.4199 0.0099728 18.6609C0 13.3942 0 8.11741 0 2.83048C0 1.07154 1.05712 0 2.79238 0C7.3699 0 11.9474 0 16.5249 0ZM1.14687 8.47122C1.14687 8.61274 1.14687 8.73405 1.14687 8.86546C1.14687 12.1508 1.14687 15.4362 1.14687 18.7216C1.14687 19.8235 1.69538 20.3693 2.78241 20.3693C11.9175 20.3693 21.0526 20.3693 30.1976 20.3693C31.3146 20.3693 31.8531 19.8235 31.8531 18.7014C31.8531 15.4261 31.8531 12.1609 31.8531 8.88568C31.8531 8.75426 31.8432 8.62285 31.8332 8.48133C21.5911 8.47122 11.3889 8.47122 1.14687 8.47122ZM1.16682 7.27837C11.4189 7.27837 21.621 7.27837 31.8232 7.27837C31.8232 6.37868 31.8232 5.50932 31.8232 4.62985C21.5911 4.62985 11.3889 4.62985 1.16682 4.62985C1.16682 5.51943 1.16682 6.38879 1.16682 7.27837ZM1.16682 3.4269C11.3889 3.4269 21.6011 3.4269 31.893 3.4269C31.8332 2.94168 31.8631 2.45645 31.7135 2.03188C31.4841 1.38491 30.9257 1.15241 30.2475 1.15241C21.0725 1.16252 11.9075 1.15241 2.73255 1.15241C2.63282 1.15241 2.53309 1.15241 2.43336 1.16252C1.81505 1.21306 1.25657 1.7084 1.16682 2.32504C1.12693 2.67885 1.16682 3.04276 1.16682 3.4269Z" fill="black"/>
<path d="M16.3453 15.7597C18.6889 15.7597 21.0325 15.7597 23.3761 15.7597C23.4958 15.7597 23.6254 15.7496 23.7451 15.7698C24.0642 15.8102 24.2537 16.0023 24.2537 16.3258C24.2637 16.6493 24.0742 16.8413 23.7651 16.902C23.6554 16.9222 23.5457 16.9222 23.426 16.9222C18.669 16.9222 13.902 16.9222 9.14494 16.9222C8.99534 16.9222 8.80586 16.9424 8.71611 16.8616C8.55654 16.72 8.35709 16.4976 8.36706 16.3157C8.37703 16.1337 8.59643 15.9315 8.76597 15.8001C8.8657 15.7193 9.05518 15.7597 9.20477 15.7597C11.5883 15.7496 13.9718 15.7597 16.3453 15.7597Z" fill="black"/>
<path d="M3.10165 16.3966C3.09168 15.3351 3.90945 14.4961 4.96657 14.4961C5.99377 14.4961 6.83148 15.3351 6.84145 16.3662C6.84145 17.4074 5.99377 18.2768 4.96657 18.2768C3.93937 18.2768 3.10165 17.4378 3.10165 16.3966ZM5.68461 16.3763C5.68461 15.9619 5.35551 15.6384 4.94662 15.6384C4.55768 15.6384 4.23855 15.9518 4.22858 16.3561C4.21861 16.7706 4.53774 17.1042 4.94662 17.1042C5.36548 17.1143 5.68461 16.8009 5.68461 16.3763Z" fill="black"/>
</g>
<defs>
<clipPath id="clip0_92_443">
<rect width="33" height="21.5217" fill="white"/>
</clipPath>
</defs>
</svg>
