<?xml version="1.0" ?><svg xmlns="http://www.w3.org/2000/svg" id="flat" viewBox="0 0 960 960"><path d="m711.496,699.169c-66.208-24.86-108.844-44.994-175.051-69.854-25.896-9.724-51.545-19.653-79.113-14.663-10.499,1.9-24.887,4.896-34.492,9.092-67.152,29.335-151.174,72.487-224.757,84.952,187.363,24.42,368.375,23.618,543.642,0-12.047-3.747-19.413-5.466-30.227-9.527Z" fill="#f2ab5a"/><path d="m470.05,515.174c2.698-30.892,8.626-58.069,19.653-87.048,22.202-58.348,65.717-110.397,123.785-133.32,27.91-11.018,60.228-14.853,87.58-2.512,27.351,12.341,46.984,44.055,38.766,72.914-11.402,40.037-61.447,50.669-101.497,62.026-47.397,13.44-138.736,34.235-168.286,87.94" fill="#6aac96"/><path d="m471.808,496.059c0-88.027-44.58-173.954-103.771-195.53-12.621-4.6-26.273-7.069-39.556-5.065-23.79,3.588-44.494,22.632-50.054,46.04-5.56,23.408,4.466,49.593,24.006,63.63,28.792,20.686,144.461,32.443,169.375,90.925" fill="#6aac96"/><path d="m473.316,500.979c-1.257,0-2.427-.795-2.846-2.052-16.403-49.204-46.606-89.438-82.867-110.386-1.435-.829-1.926-2.664-1.097-4.098.828-1.435,2.664-1.925,4.099-1.097,37.513,21.671,68.696,63.107,85.557,113.684.524,1.572-.325,3.271-1.896,3.795-.315.105-.635.155-.949.155Z" fill="#3d4659"/><path d="m471.083,615.779c-1.521,0-2.823-1.151-2.98-2.696-3.336-32.79-3.706-67.653-1.04-98.169,3.4-29.113,20.737-61.468,48.824-91.192,26.421-27.959,59.905-50.802,91.869-62.67,1.546-.577,3.278.214,3.856,1.768.576,1.553-.215,3.28-1.769,3.857-60.287,22.385-129.648,87.538-136.813,148.847-2.624,30.064-2.258,64.527,1.041,96.953.168,1.648-1.032,3.121-2.681,3.288-.104.011-.206.016-.308.016Z" fill="#3d4659"/></svg>