<svg width="44" height="44" viewBox="0 0 44 44" fill="none" xmlns="http://www.w3.org/2000/svg">
<path fill-rule="evenodd" clip-rule="evenodd" d="M41.955 13.1149V30.7754C41.955 37.3188 37.86 41.9338 31.3167 41.9338H12.575C6.03171 41.9338 1.95837 37.3188 1.95837 30.7754V13.1149C1.95837 6.5716 6.05337 1.95877 12.575 1.95877H31.3167C37.86 1.95877 41.955 6.5716 41.955 13.1149Z" stroke="#64748B" stroke-width="3" stroke-linecap="round" stroke-linejoin="round"/>
<path d="M7.44287 31.6003L10.7535 28.1055C11.904 26.8856 13.8215 26.8271 15.0435 27.9755C15.0804 28.0123 17.0737 30.0381 17.0737 30.0381C18.2762 31.2623 20.2414 31.2818 21.4655 30.0815C21.5457 30.0035 26.5225 23.9671 26.5225 23.9671C27.8052 22.4093 30.1084 22.1861 31.6684 23.471C31.7724 23.5576 36.474 28.3828 36.474 28.3828" stroke="#64748B" stroke-width="3" stroke-linecap="round" stroke-linejoin="round"/>
<path fill-rule="evenodd" clip-rule="evenodd" d="M18.344 15.7884C18.344 17.8879 16.6431 19.5887 14.5436 19.5887C12.4441 19.5887 10.7433 17.8879 10.7433 15.7884C10.7433 13.6889 12.4441 11.9881 14.5436 11.9881C16.6431 11.9902 18.344 13.6889 18.344 15.7884Z" stroke="#64748B" stroke-width="3" stroke-linecap="round" stroke-linejoin="round"/>
</svg>
