<?xml version="1.0" encoding="iso-8859-1"?>
<!-- Generator: Adobe Illustrator 19.2.1, SVG Export Plug-In . SVG Version: 6.00 Build 0)  -->
<svg version="1.1" xmlns="http://www.w3.org/2000/svg" xmlns:xlink="http://www.w3.org/1999/xlink" x="0px" y="0px"
	 viewBox="0 0 32.001 32" style="enable-background:new 0 0 32.001 32;" xml:space="preserve">
<g id="Layer_38">
	<path style="fill:white;" d="M17.757,19.757c1.168-1.167,2.697-1.753,4.243-1.754c3.327,0,5.996,2.684,5.996,5.996
		c0,0.28-0.019,0.565-0.059,0.855l1.982,0.271c0.052-0.379,0.077-0.755,0.077-1.126c0.001-2.203-0.892-4.209-2.336-5.653
		c-1.442-1.446-3.449-2.344-5.66-2.343c-2.05-0.001-4.103,0.785-5.657,2.34L17.757,19.757L17.757,19.757z"/>
	<path style="fill:white;" d="M26.242,28.243c-1.168,1.167-2.697,1.753-4.243,1.754c-3.327,0-5.996-2.684-5.997-5.996
		c0-0.28,0.019-0.565,0.059-0.855l-1.982-0.271c-0.052,0.379-0.077,0.755-0.077,1.126c-0.001,2.203,0.892,4.209,2.336,5.653
		c1.442,1.446,3.449,2.344,5.66,2.343c2.05,0.001,4.103-0.785,5.657-2.34L26.242,28.243L26.242,28.243z"/>
	<path style="fill:white;" d="M26.292,23.707l2,2C28.478,25.893,28.736,26,28.999,26c0.263,0,0.521-0.107,0.707-0.293l2-2
		c0.391-0.391,0.391-1.024,0-1.414c-0.391-0.391-1.024-0.391-1.414,0l-1.293,1.293l-1.293-1.293c-0.391-0.391-1.024-0.391-1.414,0
		C25.902,22.683,25.902,23.317,26.292,23.707L26.292,23.707z"/>
	<path style="fill:white;" d="M13.706,25.707l1.293-1.293l1.293,1.293c0.391,0.391,1.024,0.391,1.414,0
		c0.391-0.391,0.391-1.024,0-1.414l-2-2c-0.391-0.391-1.024-0.391-1.414,0l-2,2c-0.391,0.391-0.391,1.024,0,1.414
		C12.683,26.098,13.316,26.098,13.706,25.707L13.706,25.707z"/>
	<polygon style="fill:white;" points="17.757,19.757 17.757,19.757 17.757,19.757 	"/>
	<path style="fill:#666666;" d="M22.999,4H18V3c0-1.657-1.344-2.999-3.001-3h-4C9.342,0.001,8,1.343,8,3v1H2.999
		C1.342,4.001,0,5.343,0,7c0,1.305,0,2.403,2,2.816V29c0,1.657,1.342,2.999,2.999,3H14v-2H4.999C4.447,29.999,4,29.552,4,29V10h18v4
		h2V9.816C26,9.403,25.999,8.305,26,7C25.999,5.343,24.656,4.001,22.999,4z M10,3c0-0.552,0.447-0.999,0.999-1h4
		C15.551,2.001,16,2.448,16,3v1h-6V3z M22.999,8h-20C2.447,7.999,2,7.552,1.999,7c0.001-0.552,0.448-0.999,1-1h5h10h5
		c0.552,0.001,0.999,0.448,1,1C23.998,7.552,23.551,7.999,22.999,8z"/>
	<rect x="12" y="14" style="fill:#666666;" width="2" height="6"/>
	<rect x="6" y="14" style="fill:#666666;" width="2" height="12"/>
	<rect x="0.001" style="fill:none;" width="32" height="32"/>
</g>
<g id="Layer_1">
</g>
</svg>
